<?xml version="1.0" encoding="utf-8"?>
<!-- Generator: Adobe Illustrator 22.0.1, SVG Export Plug-In . SVG Version: 6.00 Build 0)  -->
<svg version="1.1" id="レイヤー_1" xmlns="http://www.w3.org/2000/svg" xmlns:xlink="http://www.w3.org/1999/xlink" x="0px"
	 y="0px" viewBox="0 0 27 20" style="enable-background:new 0 0 27 20;" xml:space="preserve">
<style type="text/css">
	.st0{fill:#FFFFFF;}
</style>
<title>icon_mail</title>
<desc>Created with Sketch.</desc>
<g id="bottomNav_pc" transform="translate(-621.000000, -20.000000)">
	<g id="icon_mail">
		<path class="st0" d="M648,22.8c0,0,0,0.1,0,0.1v13.6c0,0.7-0.2,1.4-0.5,2s-0.9,0.9-1.6,0.9H624c-0.7,0-1.4-0.3-2-0.9
			s-0.9-1.3-0.9-2V22.9c0,0,0-0.1,0-0.1c0-0.1,0-0.2,0-0.4s0.1-0.2,0.2-0.3c0,0,0,0,0.1-0.1s0,0,0.1-0.1c0.3-0.4,0.6-0.6,1.1-0.8
			c0.5-0.2,1-0.3,1.5-0.3h21.9c0.6,0,1,0.1,1.4,0.4s0.6,0.6,0.7,1.1c0,0.1,0.1,0.1,0.1,0.2S648,22.7,648,22.8z M623.6,22.6
			c-0.1,0-0.3,0-0.4,0l11.4,9.1l11.4-9.1H623.6z M645.9,37.8c0.2,0,0.4-0.2,0.4-0.5s0-0.6,0-0.8V24.4l-11.3,9
			c-0.1,0.1-0.2,0.1-0.3,0.2s-0.2,0.1-0.3,0.1s-0.2,0-0.3-0.1s-0.2-0.1-0.3-0.2l-11.3-9v12.1c0,0.2,0.2,0.5,0.5,0.8s0.6,0.5,0.8,0.5
			H645.9z"/>
	</g>
</g>
</svg>
