<?xml version="1.0" encoding="utf-8"?>
<!-- Generator: Adobe Illustrator 21.1.0, SVG Export Plug-In . SVG Version: 6.00 Build 0)  -->
<svg version="1.1" id="レイヤー_1" xmlns="http://www.w3.org/2000/svg" xmlns:xlink="http://www.w3.org/1999/xlink" x="0px"
	 y="0px" viewBox="0 0 16 30" style="enable-background:new 0 0 16 30;" xml:space="preserve">
<style type="text/css">
	.st0{fill:#C3504F;}
</style>
<title>icon_arrow</title>
<desc>Created with Sketch.</desc>
<g id="brand_pc" transform="translate(-928.000000, -9521.000000)">
	<g id="sec_contact" transform="translate(460.000000, 9159.000000)">
		<g id="btn" transform="translate(10.000000, 314.000000)">
			<path id="icon_arrow" class="st0" d="M459.1,77.8c-0.1,0-0.2,0-0.4-0.1s-0.2-0.1-0.3-0.2c-0.2-0.2-0.3-0.4-0.3-0.7
				s0.1-0.5,0.3-0.7l13.2-13.2l-13-13c-0.2-0.2-0.3-0.4-0.3-0.7s0.1-0.5,0.3-0.7s0.4-0.3,0.7-0.3s0.5,0.1,0.7,0.3l13.7,13.7
				c0.2,0.2,0.3,0.4,0.3,0.7s-0.1,0.5-0.3,0.7l-13.9,13.9c-0.1,0.1-0.2,0.2-0.3,0.2S459.2,77.8,459.1,77.8z"/>
		</g>
	</g>
</g>
</svg>
