<svg xmlns="http://www.w3.org/2000/svg" viewBox="0 0 200 125"><defs><style>.cls-1{fill:none;}.cls-2{fill:#b93931;}.cls-3{fill:#333332;}.cls-4{fill:#0da179;}.cls-5{fill:#585757;}</style></defs><title>banner_light</title><g id="bunner_light"><g id="bg"><rect class="cls-1" width="200" height="125"/></g><path class="cls-2" d="M113.56,65.63H87A2.65,2.65,0,0,1,84.37,63V36.44A2.65,2.65,0,0,1,87,33.79h26.54a2.65,2.65,0,0,1,2.65,2.64h0V63a2.65,2.65,0,0,1-2.65,2.65h0"/><path class="cls-3" d="M113.56,66.42H87A3.44,3.44,0,0,1,83.58,63V36.44A3.44,3.44,0,0,1,87,33h26.54A3.44,3.44,0,0,1,117,36.44V63A3.44,3.44,0,0,1,113.56,66.42ZM87,34.58a1.86,1.86,0,0,0-1.86,1.86V63A1.86,1.86,0,0,0,87,64.85h26.54A1.86,1.86,0,0,0,115.43,63V36.44a1.86,1.86,0,0,0-1.86-1.86Z"/><path class="cls-4" d="M116.21,44.4h-8a2.65,2.65,0,0,1-2.65-2.65h0v-8h8a2.65,2.65,0,0,1,2.65,2.65v8Z"/><path class="cls-3" d="M117,45.19h-8.76a3.44,3.44,0,0,1-3.43-3.44V33h8.75A3.44,3.44,0,0,1,117,36.44v8.75ZM106.39,34.58v7.18a1.86,1.86,0,0,0,1.86,1.86h7.18V36.44a1.86,1.86,0,0,0-1.86-1.86h-7.18Z"/><path class="cls-5" d="M58,84.38a2.12,2.12,0,0,0-1.42-.44,2.62,2.62,0,0,0-1.27.28,2.28,2.28,0,0,0-.81.74A3.1,3.1,0,0,0,54.07,86a5.8,5.8,0,0,0-.13,1.24,4.71,4.71,0,0,0,.14,1.15,3.05,3.05,0,0,0,.44,1,2.22,2.22,0,0,0,.77.7,2.31,2.31,0,0,0,1.14.26A2.28,2.28,0,0,0,58,89.82a2.46,2.46,0,0,0,.71-1.53h1.43A3.89,3.89,0,0,1,59,90.73a3.74,3.74,0,0,1-2.58.86,4.39,4.39,0,0,1-1.72-.31,3.31,3.31,0,0,1-1.25-.89A3.83,3.83,0,0,1,52.71,89a5.72,5.72,0,0,1-.24-1.75,6.21,6.21,0,0,1,.25-1.79A4.13,4.13,0,0,1,53.46,84a3.51,3.51,0,0,1,1.26-1,4.12,4.12,0,0,1,1.76-.35,5.19,5.19,0,0,1,1.36.17,3.29,3.29,0,0,1,1.12.54,2.9,2.9,0,0,1,.79.91,3.35,3.35,0,0,1,.4,1.31H58.7A2.12,2.12,0,0,0,58,84.38Z"/><path class="cls-5" d="M64.14,79.66v4.49h0a1.87,1.87,0,0,1,.46-.67A2.55,2.55,0,0,1,65.3,83a3.47,3.47,0,0,1,.77-.26,3.93,3.93,0,0,1,.78-.08,3.72,3.72,0,0,1,1.39.23,2.31,2.31,0,0,1,.9.64,2.4,2.4,0,0,1,.48,1,5.26,5.26,0,0,1,.14,1.26V91.4H68.38V85.65a1.69,1.69,0,0,0-.46-1.25,1.71,1.71,0,0,0-1.27-.47,2.84,2.84,0,0,0-1.11.2,2.07,2.07,0,0,0-.78.56,2.4,2.4,0,0,0-.47.85,3.45,3.45,0,0,0-.16,1.06v4.8H62.75V79.66Z"/><path class="cls-5" d="M80.08,91.37a2,2,0,0,1-1,.21,1.2,1.2,0,0,1-.86-.3,1.32,1.32,0,0,1-.32-1,3.35,3.35,0,0,1-1.34,1,4.62,4.62,0,0,1-2.75.17,2.55,2.55,0,0,1-.9-.41,2,2,0,0,1-.6-.73,2.46,2.46,0,0,1-.22-1.1A2.5,2.5,0,0,1,72.33,88a2.15,2.15,0,0,1,.65-.75,3,3,0,0,1,.92-.44q.52-.15,1.06-.25t1.1-.17a5.89,5.89,0,0,0,.91-.16,1.51,1.51,0,0,0,.63-.31.77.77,0,0,0,.23-.6,1.4,1.4,0,0,0-.17-.74,1.19,1.19,0,0,0-.44-.43,1.81,1.81,0,0,0-.61-.2,4.4,4.4,0,0,0-.67-.05,3,3,0,0,0-1.48.34,1.42,1.42,0,0,0-.64,1.28H72.42a3,3,0,0,1,.33-1.33,2.49,2.49,0,0,1,.79-.88,3.34,3.34,0,0,1,1.13-.49A5.89,5.89,0,0,1,76,82.7a8,8,0,0,1,1.14.08,3,3,0,0,1,1,.34,2,2,0,0,1,.74.71A2.3,2.3,0,0,1,79.22,85v4.37a3.23,3.23,0,0,0,.06.72q.06.23.39.23a1.71,1.71,0,0,0,.43-.07v1.09ZM77.81,87a1.79,1.79,0,0,1-.69.29q-.43.09-.9.15l-.95.13a3.51,3.51,0,0,0-.86.24,1.54,1.54,0,0,0-.62.47,1.3,1.3,0,0,0-.24.83,1.12,1.12,0,0,0,.14.58,1.14,1.14,0,0,0,.36.39,1.49,1.49,0,0,0,.52.21,2.9,2.9,0,0,0,.63.07,3.3,3.3,0,0,0,1.19-.19,2.46,2.46,0,0,0,.81-.47,1.88,1.88,0,0,0,.47-.62,1.56,1.56,0,0,0,.15-.63V87Z"/><path class="cls-5" d="M86.33,82.9v1.22H84.63V89.4a1.52,1.52,0,0,0,0,.4.4.4,0,0,0,.16.23.67.67,0,0,0,.32.11,4.28,4.28,0,0,0,.53,0h.64V91.4H85.26a4.9,4.9,0,0,1-.93-.07,1.36,1.36,0,0,1-.63-.27,1.16,1.16,0,0,1-.35-.56,3.23,3.23,0,0,1-.12-1V84.12H81.79V82.89h1.44V80.35h1.39V82.9h1.71Z"/><path class="cls-5" d="M91.29,79.66v4.39h0a2.1,2.1,0,0,1,1.09-1A4.05,4.05,0,0,1,94,82.7a3.84,3.84,0,0,1,1.72.36A3.5,3.5,0,0,1,97,84a4.34,4.34,0,0,1,.73,1.42A5.81,5.81,0,0,1,98,87.17a6,6,0,0,1-.24,1.71A4,4,0,0,1,97,90.29a3.39,3.39,0,0,1-1.22.95,3.92,3.92,0,0,1-1.7.35,4.25,4.25,0,0,1-.7-.07,3.77,3.77,0,0,1-.76-.21,2.94,2.94,0,0,1-.72-.4,2.24,2.24,0,0,1-.57-.64h0v1.14H89.9V79.66h1.4Zm5,6.25a3.12,3.12,0,0,0-.48-1,2.31,2.31,0,0,0-.82-.71,2.47,2.47,0,0,0-1.18-.27,2.31,2.31,0,0,0-2,1,3.07,3.07,0,0,0-.45,1,5,5,0,0,0,0,2.38,3,3,0,0,0,.47,1,2.38,2.38,0,0,0,.83.72,2.61,2.61,0,0,0,1.23.27,2.38,2.38,0,0,0,1.21-.28,2.25,2.25,0,0,0,.78-.74,3.22,3.22,0,0,0,.43-1.05,5.65,5.65,0,0,0,.13-1.22A4.34,4.34,0,0,0,96.32,85.91Z"/><path class="cls-5" d="M100.39,85.41a4,4,0,0,1,.79-1.41,3.73,3.73,0,0,1,1.3-.95,4.78,4.78,0,0,1,3.57,0,3.77,3.77,0,0,1,1.29.95,4,4,0,0,1,.79,1.41,5.72,5.72,0,0,1,.26,1.75,5.64,5.64,0,0,1-.26,1.74,4,4,0,0,1-.79,1.41,3.69,3.69,0,0,1-1.29.94,4.88,4.88,0,0,1-3.57,0,3.66,3.66,0,0,1-1.3-.94,4,4,0,0,1-.79-1.41,5.59,5.59,0,0,1-.26-1.74A5.66,5.66,0,0,1,100.39,85.41Zm1.42,3.13a2.87,2.87,0,0,0,.57,1,2.45,2.45,0,0,0,.85.62,2.52,2.52,0,0,0,2.9-.62,2.93,2.93,0,0,0,.57-1,4.67,4.67,0,0,0,0-2.75,3,3,0,0,0-.57-1,2.46,2.46,0,0,0-.85-.63,2.58,2.58,0,0,0-2.05,0,2.41,2.41,0,0,0-.85.63,2.94,2.94,0,0,0-.57,1,4.71,4.71,0,0,0,0,2.75Z"/><path class="cls-5" d="M110,82.9h1.79l2,3,2.12-3h1.68l-2.93,3.91L118,91.4h-1.79l-2.37-3.52-2.37,3.52h-1.69L113,86.93Z"/><path class="cls-5" d="M122.33,89.58V91.4h-1.83V89.58Z"/><path class="cls-5" d="M125.84,81.37V79.66h1.39v1.71Zm1.39,1.53v8.5h-1.39V82.9Z"/><path class="cls-5" d="M132,82.9v1.35h0a3,3,0,0,1,2.76-1.54,3.72,3.72,0,0,1,1.39.23,2.32,2.32,0,0,1,.9.64,2.42,2.42,0,0,1,.49,1,5.31,5.31,0,0,1,.14,1.26V91.4h-1.39V85.65a1.59,1.59,0,0,0-1.75-1.72,2.83,2.83,0,0,0-1.11.2,2.07,2.07,0,0,0-.78.56,2.38,2.38,0,0,0-.47.85,3.42,3.42,0,0,0-.16,1.06v4.8h-1.39V82.9Z"/><path class="cls-5" d="M145.94,84.38a2.13,2.13,0,0,0-1.42-.44,2.63,2.63,0,0,0-1.27.28,2.29,2.29,0,0,0-.81.74A3.14,3.14,0,0,0,142,86a5.86,5.86,0,0,0-.13,1.24,4.66,4.66,0,0,0,.14,1.15,3.05,3.05,0,0,0,.43,1,2.21,2.21,0,0,0,.77.7,2.31,2.31,0,0,0,1.14.26,2.27,2.27,0,0,0,1.62-.54,2.45,2.45,0,0,0,.72-1.53h1.43a3.92,3.92,0,0,1-1.18,2.43,3.69,3.69,0,0,1-2.58.86,4.39,4.39,0,0,1-1.72-.31,3.31,3.31,0,0,1-1.25-.89,3.83,3.83,0,0,1-.76-1.37,5.77,5.77,0,0,1-.25-1.75,6.21,6.21,0,0,1,.25-1.79,4.13,4.13,0,0,1,.75-1.45,3.5,3.5,0,0,1,1.26-1,4.12,4.12,0,0,1,1.76-.35,5.17,5.17,0,0,1,1.36.17,3.31,3.31,0,0,1,1.12.54,2.9,2.9,0,0,1,.79.91,3.37,3.37,0,0,1,.4,1.31h-1.45A2.14,2.14,0,0,0,145.94,84.38Z"/></g></svg>